{
  "accessors": [
    {
      "bufferView": 0,
      "componentType": 5126,
      "count": 56179,
      "max": [
        0.214681997895241,
        0.514117002487183,
        0.137664005160332
      ],
      "min": [
        -0.214655995368958,
        -0.514117002487183,
        -0.137600004673004
      ],
      "type": "VEC3"
    },
    {
      "bufferView": 1,
      "componentType": 5126,
      "count": 56179,
      "type": "VEC3"
    },
    {
      "bufferView": 2,
      "componentType": 5126,
      "count": 56179,
      "type": "VEC2"
    },
    {
      "bufferView": 3,
      "componentType": 5123,
      "count": 299979,
      "type": "SCALAR"
    }
  ],
  "asset": {
    "generator": "MeshSmith mesh conversion tool",
    "version": "2.0"
  },
  "bufferViews": [
    {
      "buffer": 0,
      "byteLength": 674148,
      "target": 34962
    },
    {
      "buffer": 0,
      "byteLength": 674148,
      "byteOffset": 674148,
      "target": 34962
    },
    {
      "buffer": 0,
      "byteLength": 449432,
      "byteOffset": 1348296,
      "target": 34962
    },
    {
      "buffer": 0,
      "byteLength": 599958,
      "byteOffset": 1797728,
      "target": 34963
    }
  ],
  "buffers": [
    {
      "byteLength": 2397686,
      "uri": "CS_255209_001-100k-2048.bin"
    }
  ],
  "images": [
    {
      "uri": "CS_255209_001-100k-2048-diffuse.jpg"
    },
    {
      "uri": "CS_255209_001-100k-2048-occlusion.jpg"
    },
    {
      "uri": "CS_255209_001-100k-2048-normals.jpg"
    }
  ],
  "materials": [
    {
      "name": "default",
      "normalTexture": {
        "index": 2
      },
      "occlusionTexture": {
        "index": 1
      },
      "pbrMetallicRoughness": {
        "baseColorTexture": {
          "index": 0
        },
        "metallicFactor": 0.100000001490116,
        "roughnessFactor": 0.800000011920929
      }
    }
  ],
  "meshes": [
    {
      "primitives": [
        {
          "attributes": {
            "NORMAL": 1,
            "POSITION": 0,
            "TEXCOORD_0": 2
          },
          "indices": 3,
          "material": 0,
          "mode": 4
        }
      ]
    }
  ],
  "nodes": [
    {
      "mesh": 0
    }
  ],
  "scene": 0,
  "scenes": [
    {
      "nodes": [
        0
      ]
    }
  ],
  "textures": [
    {
      "source": 0
    },
    {
      "source": 1
    },
    {
      "source": 2
    }
  ]
}